<?xml version="1.0" encoding="utf-8"?>
<svg viewBox="415 84 64 64" width="64" height="64" xmlns="http://www.w3.org/2000/svg">
  <path d="M 466.476 84.015 C 466.207 84.061 465.954 84.209 465.783 84.451 C 465.783 84.451 464.32 87.36 464.801 87.703 C 464.988 87.837 465.205 87.903 465.417 87.903 C 465.751 87.903 467.522 85.698 467.522 85.698 C 467.864 85.213 467.754 84.543 467.273 84.199 C 467.032 84.026 466.745 83.969 466.476 84.015 Z M 434.814 88.18 C 433.442 88.137 432.145 88.417 431 89.082 C 429.168 90.148 427.992 92.051 427.399 94.377 C 426.809 96.704 426.758 99.495 427.167 102.616 C 427.301 103.639 427.502 104.709 427.736 105.797 C 426.683 106.138 425.664 106.495 424.718 106.888 C 421.83 108.093 419.456 109.533 417.752 111.212 C 416.048 112.892 415 114.868 415 116.999 C 415 119.13 416.048 121.108 417.752 122.787 C 419.456 124.467 421.83 125.907 424.718 127.11 C 425.664 127.504 426.683 127.861 427.736 128.201 C 427.502 129.289 427.301 130.358 427.167 131.381 C 426.758 134.501 426.809 137.293 427.399 139.62 C 427.992 141.946 429.168 143.849 431 144.915 C 432.832 145.979 435.057 146.054 437.353 145.408 C 439.649 144.759 442.074 143.408 444.551 141.492 C 445.365 140.864 446.181 140.151 447 139.405 C 447.818 140.151 448.635 140.864 449.449 141.492 C 451.927 143.408 454.352 144.759 456.647 145.408 C 458.943 146.054 461.168 145.979 463 144.915 C 464.832 143.849 466.008 141.946 466.601 139.62 C 467.193 137.293 467.242 134.501 466.833 131.381 C 466.699 130.359 466.498 129.29 466.265 128.204 C 467.317 127.863 468.336 127.504 469.282 127.11 C 472.17 125.907 474.544 124.467 476.248 122.787 C 477.952 121.108 479 119.13 479 116.999 C 479 114.868 477.952 112.892 476.248 111.212 C 474.544 109.533 472.17 108.093 469.282 106.888 C 468.336 106.495 467.317 106.136 466.265 105.795 C 466.498 104.708 466.699 103.64 466.833 102.618 C 467.242 99.497 467.193 96.706 466.601 94.38 C 466.008 92.053 464.832 90.15 463 89.085 C 461.168 88.019 458.943 87.945 456.647 88.592 C 454.352 89.238 451.927 90.591 449.449 92.508 C 448.635 93.135 447.818 93.846 447 94.593 C 446.181 93.846 445.365 93.133 444.551 92.505 C 442.074 90.589 439.649 89.236 437.353 88.589 C 436.491 88.346 435.639 88.205 434.814 88.18 Z M 470.362 88.429 C 470.224 88.441 470.086 88.481 469.956 88.549 L 468.067 89.546 C 467.545 89.823 467.342 90.474 467.617 90.998 C 467.808 91.366 468.179 91.573 468.563 91.573 C 468.729 91.573 468.899 91.535 469.056 91.452 L 470.946 90.453 C 471.468 90.177 471.67 89.527 471.396 89.002 C 471.19 88.608 470.777 88.396 470.362 88.429 Z M 434.764 90.323 C 435.385 90.345 436.056 90.457 436.778 90.661 C 438.7 91.202 440.923 92.412 443.25 94.211 C 443.971 94.77 444.708 95.404 445.443 96.07 C 443.334 98.181 441.24 100.668 439.234 103.449 C 435.839 103.809 432.655 104.392 429.785 105.178 C 429.58 104.202 429.402 103.245 429.284 102.335 C 428.9 99.405 428.972 96.86 429.467 94.912 C 429.962 92.965 430.838 91.658 432.066 90.944 C 432.834 90.497 433.73 90.285 434.764 90.323 Z M 459.234 90.325 C 460.268 90.288 461.166 90.499 461.934 90.946 C 463.162 91.661 464.038 92.965 464.534 94.912 C 465.028 96.86 465.098 99.408 464.714 102.337 C 464.596 103.245 464.42 104.202 464.215 105.178 C 461.345 104.392 458.162 103.809 454.766 103.449 C 452.76 100.668 450.666 98.183 448.557 96.073 C 449.292 95.405 450.026 94.772 450.747 94.213 C 453.075 92.413 455.298 91.202 457.22 90.661 C 457.942 90.457 458.614 90.346 459.234 90.325 Z M 471.984 93.909 L 469.873 94.228 C 469.29 94.317 468.89 94.865 468.978 95.452 C 469.058 95.986 469.511 96.367 470.031 96.367 C 470.083 96.367 470.135 96.361 470.19 96.354 L 472.301 96.035 C 472.883 95.946 473.286 95.401 473.198 94.813 C 473.111 94.228 472.569 93.833 471.984 93.909 Z M 447 97.549 C 448.652 99.197 450.31 101.096 451.927 103.208 C 450.317 103.103 448.681 103.031 447 103.031 C 445.318 103.031 443.682 103.103 442.071 103.208 C 443.69 101.096 445.348 99.197 447 97.549 Z M 470.287 99.384 C 469.702 99.351 469.193 99.801 469.161 100.393 C 469.124 100.986 469.575 101.495 470.165 101.529 L 472.294 101.653 C 472.314 101.654 472.335 101.655 472.357 101.655 C 472.917 101.655 473.386 101.212 473.419 100.641 C 473.454 100.048 473.006 99.541 472.417 99.508 L 470.287 99.384 Z M 447 105.181 C 449.27 105.181 451.472 105.293 453.599 105.488 C 454.83 107.245 456.026 109.111 457.159 111.09 C 458.295 113.069 459.302 115.047 460.196 116.999 C 459.302 118.952 458.295 120.93 457.159 122.908 C 456.026 124.888 454.83 126.755 453.599 128.509 C 451.472 128.707 449.27 128.819 447 128.819 C 444.73 128.819 442.528 128.707 440.403 128.509 C 439.17 126.754 437.972 124.888 436.838 122.908 C 435.703 120.93 434.698 118.95 433.804 116.997 C 434.697 115.046 435.705 113.069 436.838 111.09 C 437.972 109.11 439.17 107.245 440.403 105.488 C 442.528 105.293 444.73 105.181 447 105.181 Z M 437.606 105.804 C 436.71 107.156 435.83 108.549 434.99 110.016 C 434.15 111.481 433.394 112.944 432.679 114.402 C 431.673 111.935 430.869 109.54 430.276 107.274 C 432.521 106.659 434.982 106.159 437.606 105.804 Z M 456.391 105.804 C 459.017 106.159 461.478 106.658 463.724 107.274 C 463.131 109.54 462.329 111.936 461.321 114.404 C 460.606 112.946 459.849 111.482 459.008 110.016 C 458.169 108.549 457.286 107.155 456.391 105.804 Z M 428.228 107.894 C 428.987 110.79 430.078 113.859 431.468 116.999 C 430.078 120.14 428.989 123.208 428.228 126.105 C 427.287 125.796 426.375 125.474 425.535 125.123 C 422.826 123.993 420.67 122.656 419.245 121.251 C 417.817 119.845 417.134 118.428 417.134 116.999 C 417.134 115.57 417.817 114.153 419.245 112.748 C 420.67 111.341 422.826 110.006 425.535 108.877 C 426.375 108.525 427.287 108.202 428.228 107.894 Z M 465.77 107.894 C 466.711 108.202 467.623 108.525 468.465 108.877 C 471.174 110.006 473.33 111.341 474.756 112.748 C 476.183 114.153 476.866 115.57 476.866 116.999 C 476.866 118.428 476.183 119.845 474.756 121.251 C 473.33 122.656 471.174 123.993 468.465 125.123 C 467.625 125.474 466.713 125.796 465.772 126.105 C 465.013 123.208 463.92 120.14 462.531 116.999 C 463.92 113.859 465.01 110.79 465.77 107.894 Z M 461.321 119.596 C 462.329 122.063 463.131 124.458 463.724 126.724 C 461.478 127.34 459.017 127.84 456.391 128.195 C 457.286 126.844 458.169 125.449 459.008 123.984 C 459.849 122.517 460.606 121.053 461.321 119.596 Z M 432.679 119.597 C 433.394 121.053 434.15 122.518 434.99 123.984 C 435.83 125.45 436.71 126.844 437.606 128.195 C 434.982 127.84 432.521 127.34 430.276 126.724 C 430.869 124.458 431.673 122.064 432.679 119.597 Z M 429.785 128.821 C 432.655 129.606 435.839 130.189 439.234 130.55 C 441.24 133.331 443.334 135.817 445.443 137.928 C 444.708 138.596 443.971 139.228 443.25 139.785 C 440.923 141.584 438.7 142.796 436.778 143.338 C 434.855 143.879 433.295 143.769 432.066 143.054 C 430.838 142.34 429.959 141.034 429.465 139.087 C 428.97 137.14 428.9 134.592 429.284 131.661 C 429.402 130.752 429.58 129.797 429.785 128.821 Z M 464.215 128.821 C 464.42 129.797 464.596 130.752 464.714 131.661 C 465.098 134.592 465.028 137.14 464.534 139.087 C 464.038 141.034 463.162 142.337 461.934 143.052 C 460.705 143.767 459.145 143.879 457.222 143.338 C 455.3 142.796 453.075 141.584 450.747 139.785 C 450.026 139.228 449.292 138.594 448.557 137.926 C 450.666 135.815 452.76 133.331 454.766 130.55 C 458.162 130.189 461.345 129.606 464.215 128.821 Z M 422.052 129.589 C 421.464 129.509 420.93 129.923 420.854 130.512 C 420.775 131.1 421.186 131.64 421.771 131.719 L 423.885 132.002 C 423.933 132.008 423.981 132.012 424.027 132.012 C 424.554 132.012 425.014 131.618 425.082 131.079 C 425.162 130.49 424.752 129.951 424.167 129.872 L 422.052 129.589 Z M 442.071 130.791 C 443.682 130.896 445.318 130.967 447 130.967 C 448.681 130.967 450.317 130.896 451.927 130.791 C 450.31 132.903 448.652 134.802 447 136.451 C 445.348 134.802 443.689 132.903 442.071 130.791 Z M 423.704 135.071 L 421.572 135.143 C 420.983 135.162 420.522 135.658 420.541 136.252 C 420.56 136.832 421.034 137.29 421.606 137.29 C 421.619 137.29 421.634 137.292 421.644 137.29 L 423.776 137.216 C 424.366 137.197 424.826 136.701 424.806 136.108 C 424.787 135.514 424.292 135.03 423.704 135.071 Z M 424.627 140.112 C 424.49 140.099 424.347 140.112 424.206 140.156 L 422.165 140.784 C 421.602 140.957 421.285 141.558 421.456 142.125 C 421.596 142.588 422.019 142.887 422.477 142.887 C 422.581 142.887 422.683 142.871 422.787 142.839 L 424.829 142.212 C 425.393 142.038 425.71 141.437 425.538 140.87 C 425.41 140.444 425.04 140.155 424.627 140.112 Z M 426.887 144.455 C 426.615 144.433 426.336 144.516 426.112 144.708 L 424.494 146.11 C 424.046 146.496 423.995 147.175 424.378 147.625 C 424.59 147.873 424.89 148 425.19 148 C 425.436 148 425.683 147.913 425.883 147.739 L 427.502 146.339 C 427.95 145.953 428 145.274 427.617 144.823 C 427.425 144.599 427.16 144.475 426.887 144.455 Z" style="fill: rgb(222, 44, 104);"/>
  <path d="M 439.022 108.838 C 438.811 108.838 438.641 109.008 438.641 109.219 L 438.641 124.457 C 438.641 124.668 454.641 124.668 454.641 124.457 L 454.641 109.219 C 454.641 109.008 439.022 108.838 439.022 108.838 Z M 439.402 109.6 L 453.879 109.6 L 453.879 124.076 L 439.402 124.076 L 439.402 109.6 Z M 442.83 116.076 L 442.83 117.388 L 444.736 117.388 L 444.736 123.315 L 446.261 123.315 L 446.261 117.388 L 448.164 117.388 L 448.164 116.076 L 442.83 116.076 Z" style="fill: rgb(222, 44, 104);"/>
  <g transform="matrix(0.03486, 0, 0, 0.034861, 446.890503, 117.325493)">
    <path d="M91.794,0C41.178,0,0,41.178,0,91.794c0,50.62,41.178,91.794,91.794,91.794c50.62,0,91.794-41.175,91.794-91.794 C183.589,41.178,142.402,0,91.794,0z M91.794,171.483c-43.941,0-79.689-35.748-79.689-79.689s35.748-79.689,79.689-79.689 s79.689,35.748,79.689,79.689S135.729,171.483,91.794,171.483z M96.287,80.416l-1.715-0.553V53.342 c3.89,0.322,6.715,1.374,8.5,3.153c2.246,2.24,3.369,5.938,3.369,11.106h17.957c0-9.229-2.838-16.361-8.5-21.385 c-5.119-4.519-12.229-7.013-21.314-7.468v-9.664h-6.377v9.871c-8.316,0.502-15.031,3.038-20.15,7.607 c-5.849,5.254-8.771,12.359-8.771,21.311c0,7.312,2.42,13.184,7.276,17.614c4.471,4.067,11.688,7.678,21.645,10.829v29.335 c-3.656-0.55-6.484-1.915-8.5-4.114c-2.56-2.884-3.697-7.306-3.419-13.293H57.234l-0.074,2.465c0,9.505,2.695,16.774,8.095,21.799 c5.391,5.024,13.042,7.838,22.958,8.435v13.565h6.377v-13.643c9.269-0.396,16.77-3.103,22.479-8.086 c6.26-5.426,9.398-12.755,9.398-21.999c0-7.903-2.293-14.145-6.874-18.714C115.006,87.456,107.233,83.569,96.287,80.416z M88.192,77.674c-2.796-1.138-5.009-2.355-6.676-3.633c-2.976-2.287-4.46-5.071-4.46-8.363c0-3.928,1.301-6.989,3.916-9.188 c1.889-1.599,4.279-2.604,7.214-3.015L88.192,77.674L88.192,77.674z M103.421,122.152c-2.281,2.009-5.243,3.197-8.849,3.569V98.313 c4.256,1.378,7.342,2.985,9.257,4.865c2.529,2.34,3.782,5.302,3.782,8.913C107.611,116.371,106.211,119.729,103.421,122.152z" style="fill: rgb(222, 44, 104);"/>
  </g>
</svg>
