<svg xmlns="http://www.w3.org/2000/svg" width="100" height="29" fill="none" viewBox="0 0 100 29">
    <g clip-path="url(#prefix__clip0)">
        <path fill="url(#prefix__paint0_linear)" d="M80.547 13.545c2.83 3.195 2.903 8.654.146 11.94-1.534 1.827-3.615 2.813-6.172 2.94h-.401c-1.881 0-3.543-.566-5.04-1.716v1.278H65.43v-5.642c0-5.569 0-13.146-.019-18.204v-.073l3.579-1.844-.018 15.703c-.037.566-.037 1.278-.019 1.899.055 1.734.567 2.976 1.644 4.053.93.931 2.026 1.388 3.36 1.388.876 0 1.66-.183 2.41-.53 2.1-1.004 3.268-3.487 2.866-6.19-.383-2.684-2.501-4.546-5.13-4.546-.384 0-.786.037-1.187.128 0 0-1.333.164-2.41.73v-3.432c.985-.457 2.373-.676 3.469-.676 2.446-.018 5.04 1.059 6.573 2.794zm-25.435.182c-2.154 0-4.528 1.278-4.966 3.707h9.513c.292 0 .11-.475.11-.475-.457-1.57-1.827-3.177-4.529-3.214h-.128v-.018zm7.176 9.349c.146-.11.31-.238.475-.347.31.913.785 1.734 1.37 2.465-3.707 2.848-7.414 2.903-8.893 2.812-1.169-.019-2.319-.256-3.433-.694-3.688-1.48-5.678-4.93-5.222-9.002.42-3.688 2.41-6.208 5.752-7.285.931-.31 1.899-.457 2.848-.457 2.556 0 4.82 1.133 6.336 2.995.62.748 1.096 1.625 1.443 2.574.11.293.2.603.273.913.037.128.055.274.092.402.018.11.036.22.054.347.073.493.055.968.037 1.46 0 .22-.018.439-.018.676v.585H50.073c.328 1.807 1.187 3.012 2.647 3.688.73.328 1.443.548 2.137.62 3.797.165 6.28-1.022 7.431-1.752zm-25.416-9.349c-2.155 0-4.529 1.278-4.967 3.707h9.513c.292 0 .11-.475.11-.475-.457-1.57-1.826-3.177-4.529-3.214h-.127v-.018zm7.175 9.349c.147-.11.31-.238.475-.347.31.913.785 1.734 1.37 2.465-3.707 2.848-7.414 2.903-8.893 2.812-1.168-.019-2.318-.256-3.432-.694-3.689-1.48-5.679-4.93-5.222-9.002.42-3.688 2.41-6.208 5.751-7.285.95-.31 1.9-.457 2.849-.457 2.574 0 4.838 1.133 6.336 2.995.62.748 1.095 1.625 1.442 2.574.11.293.2.603.274.913.036.128.055.274.091.402.018.11.037.22.055.347.073.493.055.968.036 1.46 0 .22-.018.439-.018.676v.585H31.832c.329 1.807 1.187 3.012 2.648 3.688.73.328 1.442.548 2.136.62 3.78.165 6.281-1.022 7.431-1.752zM28.217 11.5c-.767-.384-1.735-.676-2.593-.676-.456 0-.913.055-1.424.146-.749.164-1.424.475-2.081.986V10.77h-3.433v17.237h3.286l.165-8.965c0-.475 0-.95.018-1.425.037-2.245 1.26-3.633 3.195-3.633.146 0 .31 0 .475.018.2.018.42.091.657.164.128.037.42.183.548.22l.657.31c.366-1.023.877-1.917 1.552-2.666l-1.022-.53zM10.853 24.336c1.424-.712 2.081-1.954 1.99-3.798v-.073c-.018-.019-.073-.055-.164-.11-.676-.365-1.589-.566-3.16-.675-1.788.11-2.939.219-3.888.93-.621.476-.968 1.206-.931 1.936.036.694.401 1.297 1.004 1.68 1.552 1.023 3.305 1.04 5.149.11zm5.204-3.743v7.413c-.95-.238-2.027-.749-2.337-1.863 0 0-.092.091-.256.238-1.552 1.15-3.615 1.825-5.387 1.825-.967 0-1.99-.182-3.012-.53-2.52-.857-3.725-2.939-3.597-5.531.11-2.447 1.442-4.036 4.053-4.766 2.41-.676 4.912-.603 7.322.2.091-1.26-.548-2.629-1.716-3.231-.73-.383-1.57-.566-2.447-.566-1.424 0-2.921.456-3.907 1.168-.475-1.734-1.79-2.446-1.826-2.464 1.424-1.06 3.159-1.717 4.966-1.826.201-.019.42-.019.621-.019 1.059 0 2.045.128 2.976.347 2.52.64 4.108 2.264 4.583 4.675v4.93h-.036zm77.253 3.743c1.424-.712 2.081-1.954 1.99-3.798v-.073c-.018-.019-.073-.055-.164-.11-.676-.365-1.589-.566-3.16-.675-1.788.11-2.939.219-3.888.93-.621.476-.968 1.206-.931 1.936.036.694.383 1.297.986 1.68 1.57 1.023 3.323 1.04 5.167.11zm5.203-3.743v7.413c-.949-.238-2.044-.749-2.337-1.863 0 0-.09.091-.255.238-1.552 1.15-3.616 1.825-5.387 1.825-.967 0-1.99-.182-3.012-.53-2.52-.857-3.725-2.939-3.597-5.531.11-2.447 1.442-4.036 4.053-4.766 2.41-.676 4.912-.603 7.322.2.091-1.26-.548-2.629-1.716-3.231-.73-.383-1.57-.566-2.447-.566-1.424 0-2.921.456-3.907 1.168-.475-1.734-1.79-2.446-1.826-2.464 1.424-1.06 3.158-1.717 4.966-1.826.2-.019.42-.019.62-.019 1.06 0 2.046.128 2.977.347 2.502.64 4.108 2.264 4.583 4.675v4.93h-.037z"/>
    </g>
    <defs>
        <linearGradient id="prefix__paint0_linear" x1="1.454" x2="98.516" y1="15.314" y2="15.314" gradientUnits="userSpaceOnUse">
            <stop stop-color="#DB297F"/>
            <stop offset="1" stop-color="#5358CD"/>
        </linearGradient>
        <clipPath id="prefix__clip0">
            <path fill="#fff" d="M0 0H100V28.571H0z"/>
        </clipPath>
    </defs>
</svg>
